<?xml version="1.0" standalone="no"?>
<!DOCTYPE svg PUBLIC "-//W3C//DTD SVG 20010904//EN"
 "http://www.w3.org/TR/2001/REC-SVG-20010904/DTD/svg10.dtd">
<svg version="1.0" xmlns="http://www.w3.org/2000/svg"
 width="180.000000pt" height="180.000000pt" viewBox="0 0 180.000000 180.000000"
 preserveAspectRatio="xMidYMid meet">
<metadata>
Created by potrace 1.14, written by Peter Selinger 2001-2017
</metadata>
<g transform="translate(0.000000,180.000000) scale(0.100000,-0.100000)"
fill="#000000" stroke="none">
<path d="M675 1352 c-42 -8 -65 -47 -150 -243 l-28 -66 -55 3 c-99 5 -204 -50
-269 -139 -25 -33 -37 -62 -39 -87 -1 -20 -6 -45 -11 -56 -10 -21 -10 -19 1
-88 12 -79 68 -151 147 -191 38 -20 58 -23 135 -22 78 2 95 6 138 31 57 33
129 106 152 155 11 22 17 63 18 110 2 95 -25 158 -91 217 -44 39 -45 42 -31
63 15 21 15 21 49 -21 19 -23 45 -54 59 -68 14 -14 52 -59 85 -100 103 -128
93 -120 152 -120 l54 0 -2 58 c-2 51 4 68 52 162 29 58 52 108 51 113 -4 13
11 7 24 -10 9 -12 13 -14 14 -5 0 7 5 10 10 7 8 -5 8 -11 0 -20 -6 -7 -8 -19
-5 -27 3 -8 -7 -23 -25 -36 -37 -27 -38 -49 -5 -64 14 -6 25 -15 25 -20 0 -12
-11 -10 -43 7 -25 13 -28 12 -41 -8 -23 -37 -33 -110 -22 -172 19 -113 134
-225 254 -248 26 -5 32 -3 33 11 0 9 2 27 3 40 3 28 -8 37 -59 51 -47 12 -98
58 -126 113 -14 28 -16 38 -7 39 7 1 51 3 98 4 120 3 118 3 130 25 9 17 3 35
-37 108 -26 48 -50 90 -51 95 -6 12 99 6 133 -8 38 -15 89 -68 111 -113 42
-89 -2 -210 -93 -256 -18 -9 -39 -16 -47 -16 -22 0 -33 -25 -28 -66 5 -39 0
-38 77 -17 52 14 121 64 155 114 28 42 33 58 37 133 7 107 -10 158 -75 222
-64 63 -140 97 -222 100 -35 2 -70 -1 -76 -7 -7 -6 -16 -4 -24 6 -7 8 -19 15
-27 15 -12 0 -13 3 -3 15 9 11 7 22 -11 55 -22 38 -22 43 -8 68 11 21 23 27
54 29 57 4 65 9 65 37 0 40 -27 47 -171 44 -130 -3 -132 -3 -136 -27 -5 -35
14 -51 63 -51 24 0 44 -4 44 -10 0 -11 3 -11 -102 -11 -70 -1 -78 -3 -78 -20
0 -10 -5 -19 -11 -19 -6 0 -9 7 -5 15 7 20 -18 24 -124 23 -47 -1 -87 1 -88 3
-7 7 21 59 32 60 6 1 34 2 61 3 28 1 56 5 63 9 16 10 16 54 0 63 -14 9 -120
12 -153 6z m289 -224 c36 0 66 -4 66 -8 0 -9 -66 -137 -112 -218 l-25 -43 -51
58 c-29 32 -79 93 -112 135 l-60 78 102 -3 c78 -1 102 1 106 12 3 10 6 11 12
1 5 -8 32 -13 74 -12z m-517 -210 c-70 -152 -74 -172 -34 -187 27 -11 55 3 67
32 4 12 12 33 18 47 5 14 10 28 11 33 0 4 8 21 16 37 9 17 12 30 9 30 -4 0 -5
3 -2 6 11 10 46 -15 66 -48 32 -53 36 -106 13 -169 -43 -114 -140 -162 -261
-129 -98 26 -163 146 -130 237 31 80 97 136 182 152 55 10 65 1 45 -41z m781
-88 c-2 -10 -18 -15 -56 -15 -28 0 -52 3 -52 8 0 5 14 29 31 54 l32 46 24 -39
c13 -22 22 -46 21 -54z"/>
</g>
</svg>
