<?xml version="1.0" standalone="no"?>
<!DOCTYPE svg PUBLIC "-//W3C//DTD SVG 20010904//EN"
 "http://www.w3.org/TR/2001/REC-SVG-20010904/DTD/svg10.dtd">
<svg version="1.0" xmlns="http://www.w3.org/2000/svg"
 width="340.000000pt" height="340.000000pt" viewBox="0 0 340.000000 340.000000"
 preserveAspectRatio="xMidYMid meet">
<metadata>
Created by potrace 1.14, written by Peter Selinger 2001-2017
</metadata>
<g transform="translate(0.000000,340.000000) scale(0.100000,-0.100000)"
fill="#000000" stroke="none">
<path d="M1268 2550 c-59 -18 -87 -50 -143 -163 -59 -121 -137 -304 -163 -379
-15 -46 -17 -47 -46 -40 -17 4 -69 7 -116 7 -137 -1 -251 -47 -369 -149 -68
-59 -147 -162 -173 -226 -14 -35 -16 -91 -5 -115 5 -11 6 -17 2 -13 -4 4 -14
-5 -22 -20 -17 -31 -10 -159 13 -235 33 -112 142 -237 264 -302 l75 -40 161 0
161 0 95 47 c70 35 111 64 159 111 148 149 182 209 184 329 0 42 3 80 7 83 3
4 5 16 3 28 -2 12 -6 43 -9 70 -2 26 -18 76 -35 112 -17 36 -31 69 -31 73 0
17 -109 128 -144 147 -20 11 -36 26 -36 34 0 14 39 101 45 101 2 0 34 -39 71
-87 38 -49 98 -120 134 -159 36 -39 122 -142 192 -228 l128 -156 55 -1 c30 -1
74 -2 98 -3 l42 -1 3 70 c2 40 -2 79 -9 92 -12 22 -12 21 51 142 5 9 34 70 66
136 31 66 65 132 75 147 11 14 19 33 19 41 0 28 20 29 30 3 8 -22 14 -25 38
-20 36 7 50 -11 21 -26 -17 -10 -20 -18 -15 -43 7 -39 2 -47 -51 -80 -74 -47
-67 -102 17 -137 31 -13 40 -35 18 -42 -7 -3 -36 8 -64 24 -64 35 -72 35 -86
1 -6 -16 -18 -44 -26 -63 -18 -40 -30 -145 -26 -213 9 -123 66 -245 161 -340
114 -115 218 -171 343 -186 l56 -7 -6 53 c-5 44 -3 53 9 53 10 0 12 3 5 8 -6
4 -14 19 -17 33 -6 22 -15 28 -64 38 -103 23 -171 69 -240 161 -37 52 -79 138
-70 147 2 2 97 5 211 6 l207 2 19 25 c35 45 31 60 -75 250 -32 58 -67 116 -78
130 l-19 25 34 6 c69 11 191 -2 243 -27 131 -62 248 -247 232 -368 -13 -101
-39 -170 -85 -230 -50 -66 -73 -82 -178 -119 -83 -30 -89 -34 -88 -60 1 -15 2
-51 3 -80 l1 -53 53 7 c64 8 155 40 216 76 99 58 205 184 217 257 3 22 10 49
14 62 7 19 12 104 9 164 0 8 2 26 5 40 7 32 -29 152 -62 204 -37 59 -163 177
-233 218 -88 52 -217 82 -325 75 -47 -2 -91 -10 -97 -16 -19 -19 -34 -12 -47
19 -11 25 -15 28 -32 19 -33 -18 -49 8 -19 30 l24 18 -42 75 c-46 85 -48 97
-23 141 28 52 34 55 117 56 58 1 83 5 97 17 25 24 23 73 -6 107 l-24 27 -260
0 -260 -1 -11 -30 c-27 -77 17 -124 108 -116 68 5 96 -6 81 -33 -8 -15 -17
-17 -52 -13 -78 10 -269 6 -281 -6 -8 -8 -8 -14 -2 -19 18 -12 11 -37 -12 -40
-18 -3 -21 1 -19 28 2 24 -3 32 -18 36 -12 3 -103 4 -204 2 -208 -3 -201 -7
-152 80 l30 52 111 0 c134 0 159 11 159 71 0 26 -7 46 -20 59 -18 18 -33 20
-147 19 -71 0 -140 -4 -155 -9z m422 -394 c0 -24 31 -29 152 -27 135 3 130 11
66 -101 -21 -37 -38 -72 -38 -78 0 -7 -35 -71 -78 -143 -43 -73 -84 -146 -91
-164 l-13 -32 -74 87 c-40 48 -78 92 -84 97 -6 6 -53 66 -106 135 -53 69 -109
141 -125 160 -16 19 -29 39 -29 44 0 5 32 5 73 1 91 -9 272 -12 295 -4 9 3 18
11 18 18 2 20 4 21 19 21 8 0 15 -6 15 -14z m-810 -347 c0 -6 -15 -44 -34 -83
-135 -282 -136 -287 -96 -327 32 -32 66 -37 108 -15 20 10 37 35 59 88 66 156
94 235 87 251 -5 13 -2 16 12 10 12 -4 15 -3 10 5 -14 23 5 11 51 -30 57 -53
99 -140 108 -222 5 -49 2 -75 -15 -131 -32 -100 -51 -134 -106 -188 -79 -77
-209 -125 -306 -113 -227 29 -348 155 -352 366 -1 79 2 90 34 155 76 152 218
239 398 244 25 1 42 -3 42 -10z m626 -22 c4 -4 0 -7 -9 -7 -9 0 -18 4 -21 9
-7 10 20 9 30 -2z m-73 -50 c3 -8 0 -14 -7 -14 -7 0 -13 6 -13 14 0 7 4 13 8
13 4 0 9 -6 12 -13z m857 -90 c23 -42 39 -84 36 -92 -4 -12 -27 -15 -111 -15
-58 0 -105 2 -105 5 0 28 119 200 131 188 4 -4 26 -43 49 -86z m-2005 -156 c3
-5 2 -12 -3 -15 -5 -3 -9 1 -9 9 0 17 3 19 12 6z"/>
</g>
</svg>
